<?xml version="1.0" encoding="iso-8859-1"?>
<!-- Generator: Adobe Illustrator 19.0.0, SVG Export Plug-In . SVG Version: 6.00 Build 0)  -->
<svg version="1.1" id="Layer_1" xmlns="http://www.w3.org/2000/svg" xmlns:xlink="http://www.w3.org/1999/xlink" x="0px" y="0px"
	 viewBox="0 0 512 512" style="enable-background:new 0 0 512 512;" xml:space="preserve">
<polygon style="fill:#9AD14B;" points="337.336,252.94 249.357,252.94 20.227,252.94 20.227,320.85 209.111,320.85 377.595,320.85 
	491.773,320.85 491.773,252.94 "/>
<polygon style="fill:#F95428;" points="491.773,209.428 491.773,266.766 249.357,266.766 91.996,266.766 20.227,266.766 
	20.227,209.428 "/>
<g>
	<path style="fill:#F7B239;" d="M512,326.251v23.447c0,27.888-22.606,50.506-50.506,50.506H50.518
		C22.618,400.204,0,377.586,0,349.698v-23.447c0-10.614,8.613-19.226,19.226-19.226h1h112.028l38.428,38.428l38.428-38.428h282.662
		h1.013C503.399,307.024,512,315.637,512,326.251z"/>
	<path style="fill:#F7B239;" d="M512,207.281c0,10.626-8.601,19.226-19.214,19.226h-1.013H20.227h-1
		c-5.307,0-10.113-2.147-13.59-5.624C2.159,217.407,0,212.6,0,207.281c0-42.527,27.803-78.565,66.231-90.911l62.718-4.575h70.025
		h217.541c26.363,0,50.237,10.687,67.524,27.961C501.313,157.044,512,180.906,512,207.281z"/>
</g>
<g>
	<path style="fill:#E09B2D;" d="M131.852,400.204H50.518C22.618,400.204,0,377.586,0,349.698v-23.447
		c0-10.614,8.613-19.226,19.226-19.226h81.334c-10.614,0-19.226,8.613-19.226,19.226v23.447
		C81.334,377.586,103.952,400.204,131.852,400.204z"/>
	<path style="fill:#E09B2D;" d="M86.97,220.884c3.477,3.477,8.283,5.624,13.59,5.624H19.226c-5.307,0-10.113-2.147-13.59-5.624
		C2.159,217.407,0,212.6,0,207.281c0-42.527,27.803-78.565,66.231-90.911l31.996,11.452l1.956,22.5
		c-11.846,15.908-18.848,35.61-18.848,56.959C81.334,212.6,83.493,217.407,86.97,220.884z"/>
</g>
<path style="fill:#F7B239;" d="M99.633,111.808c-0.378-0.012-0.744-0.012-1.122-0.012h1.11L99.633,111.808z"/>
<polygon style="fill:#E54728;" points="80.245,226.508 80.245,266.766 49.39,266.766 29.362,266.766 20.227,266.766 20.227,226.508 
	"/>
<g>
	<path style="fill:#B27214;" d="M426.701,134.914c9.284,9.296,9.284,24.35,0,33.646c-9.296,9.284-24.362,9.284-33.646,0
		l-56.764-56.764h67.292L426.701,134.914z"/>
	<path style="fill:#B27214;" d="M289.384,134.914c9.284,9.296,9.284,24.35,0,33.646c-9.296,9.284-24.35,9.284-33.646,0
		l-56.764-56.764h67.292L289.384,134.914z"/>
</g>
<polygon style="fill:#F4DE3B;" points="249.357,266.766 209.111,307.024 170.683,345.453 132.255,307.024 91.996,266.766 "/>
<path style="fill:#B27214;" d="M152.067,134.914c9.284,9.296,9.284,24.35,0,33.646c-9.296,9.284-24.35,9.284-33.646,0
	l-52.189-52.189c9.223-2.977,19.056-4.575,29.267-4.575h33.451L152.067,134.914z"/>
<polygon style="fill:#90BC42;" points="80.245,266.766 80.245,307.024 49.39,307.024 29.362,307.024 20.227,307.024 20.227,266.766 
	"/>
<g>
</g>
<g>
</g>
<g>
</g>
<g>
</g>
<g>
</g>
<g>
</g>
<g>
</g>
<g>
</g>
<g>
</g>
<g>
</g>
<g>
</g>
<g>
</g>
<g>
</g>
<g>
</g>
<g>
</g>
</svg>
